HIERARCHY
ROOT Hips
{
	OFFSET 0.00 0.00 0.00
	CHANNELS 6 Xposition Yposition Zposition Xrotation Yrotation Zrotation
	JOINT LeftUpLeg
	{
		OFFSET 3.10215 0.00000 0.00000
		CHANNELS 3 Xrotation Yrotation Zrotation
		JOINT LeftLeg
		{
			OFFSET 0.00000 -16.83331 0.00000
			CHANNELS 3 Xrotation Yrotation Zrotation
			JOINT LeftFoot
			{
				OFFSET 0.00000 -15.53879 0.00000
				CHANNELS 3 Xrotation Yrotation Zrotation
				JOINT LeftToeBase
				{
					OFFSET 0.00000 -1.57366 5.87297
					CHANNELS 3 Xrotation Yrotation Zrotation
					End Site
					{
						OFFSET 0.00000 0.00000 2.95275
					}
				}
			}
		}
	}
	JOINT RightUpLeg
	{
		OFFSET -3.10215 0.00000 0.00000
		CHANNELS 3 Xrotation Yrotation Zrotation
		JOINT RightLeg
		{
			OFFSET 0.00000 -16.83331 0.00000
			CHANNELS 3 Xrotation Yrotation Zrotation
			JOINT RightFoot
			{
				OFFSET 0.00000 -15.53879 0.00000
				CHANNELS 3 Xrotation Yrotation Zrotation
				JOINT RightToeBase
				{
					OFFSET 0.00000 -1.57366 5.87297
					CHANNELS 3 Xrotation Yrotation Zrotation
					End Site
					{
						OFFSET 0.00000 0.00000 2.95275
					}
				}
			}
		}
	}
	JOINT Spine
	{
		OFFSET 0.00000 0.03937 0.00000
		CHANNELS 3 Xrotation Yrotation Zrotation
		JOINT Spine1
		{
			OFFSET 0.00000 8.31046 0.00000
			CHANNELS 3 Xrotation Yrotation Zrotation
			JOINT Neck
			{
				OFFSET 0.00000 6.25463 0.00000
				CHANNELS 3 Xrotation Yrotation Zrotation
				JOINT Head
				{
					OFFSET 0.00000 8.60817 0.00000
					CHANNELS 3 Xrotation Yrotation Zrotation
					End Site
					{
						OFFSET 0.00000 4.52755 0.00000
					}
				}
			}
			JOINT LeftShoulder
			{
				OFFSET 0.00000 6.25463 0.00000
				CHANNELS 3 Xrotation Yrotation Zrotation
				JOINT LeftArm
				{
					OFFSET 7.44857 -0.00003 0.00000
					CHANNELS 3 Xrotation Yrotation Zrotation
					JOINT LeftForeArm
					{
						OFFSET 10.73545 -0.00004 0.00000
						CHANNELS 3 Xrotation Yrotation Zrotation
						JOINT LeftHand
						{
							OFFSET 10.15840 -0.00004 0.00000
							CHANNELS 3 Xrotation Yrotation Zrotation
							JOINT LeftHandThumb
							{
								OFFSET 0.00000 0.00000 0.00000
								CHANNELS 3 Xrotation Yrotation Zrotation
								End Site
								{
									OFFSET 0.00000 0.00000 3.93700
								}
							}
							JOINT L_Wrist_End
							{
								OFFSET 3.93700 -0.00001 0.00000
								CHANNELS 3 Xrotation Yrotation Zrotation
							}
						}
					}
				}
			}
			JOINT RightShoulder
			{
				OFFSET 0.00000 6.25463 0.00000
				CHANNELS 3 Xrotation Yrotation Zrotation
				JOINT RightArm
				{
					OFFSET -7.44857 -0.00003 0.00000
					CHANNELS 3 Xrotation Yrotation Zrotation
					JOINT RightForeArm
					{
						OFFSET -10.73545 -0.00004 0.00000
						CHANNELS 3 Xrotation Yrotation Zrotation
						JOINT RightHand
						{
							OFFSET -10.15840 -0.00004 0.00000
							CHANNELS 3 Xrotation Yrotation Zrotation
							JOINT RightHandThumb
							{
								OFFSET 0.00000 0.00000 0.00000
								CHANNELS 3 Xrotation Yrotation Zrotation
								End Site
								{
									OFFSET 0.00000 0.00000 3.93700
								}
							}
							JOINT R_Wrist_End
							{
								OFFSET -5.39369 -0.00002 0.00000
								CHANNELS 3 Xrotation Yrotation Zrotation
							}
						}
					}
				}
			}
		}
	}
}
MOTION
Frames: 8
Frame Time: 0.008333
 -131.7117 32.3926 1.6813 62.5468 75.4249 -58.6748 -19.2159 22.8887 -0.3220 37.4984 -0.0000 0.0000 -29.9236 4.5521 -31.0402 -1.8456 -0.0000 0.0000 5.7172 -20.9465 -4.3807 15.4533 -0.0000 0.0000 -23.7866 -11.8504 2.4759 -0.7904 -0.0000 -0.0000 -4.5678 2.1842 -0.0709 -0.7374 1.1088 -2.3683 18.8056 12.4930 2.1134 -15.7491 -2.0628 -6.4591 19.3079 -4.5439 26.7495 9.1836 -6.2368 -93.7614 -0.0002 -43.0489 -0.0001 -24.5899 11.7068 -7.0688 -0.0000 -0.0000 0.0000 -0.0000 -0.0000 0.0000 17.2953 -2.2426 -19.7277 0.9099 -3.5727 90.7846 -0.0002 40.8327 0.0001 -42.8185 22.3081 25.6859 -0.0000 -0.0000 0.0000 -0.0000 -0.0000 0.0000
 -131.5146 32.3647 1.6857 64.2959 75.5617 -60.5674 -18.2808 22.6471 -0.5227 36.8322 -0.0000 0.0000 -30.2901 3.7711 -30.6793 -2.4491 -0.0000 -0.0000 5.1008 -20.7443 -4.5174 17.4362 0.0000 -0.0000 -23.5073 -12.2095 2.9007 -1.6514 0.0000 0.0000 -4.5795 2.1963 -0.0777 -0.8348 1.1216 -2.3372 18.6280 12.3120 2.2583 -15.7621 -2.0954 -6.2398 19.2768 -4.6490 26.6868 8.6638 -6.0010 -94.1607 -0.0002 -43.6267 -0.0001 -24.6632 11.7043 -7.4824 -0.0000 0.0000 0.0000 -0.0000 0.0000 0.0000 17.0518 -2.0881 -19.5807 1.1809 -3.2120 91.2461 -0.0002 40.2188 0.0001 -42.5037 21.0963 26.1289 0.0000 -0.0000 0.0000 0.0000 -0.0000 0.0000
 -131.2918 32.3290 1.6378 66.9790 76.1907 -63.0322 -16.6608 21.9058 -1.4083 35.8237 -0.0000 0.0000 -30.5257 3.0896 -29.6837 -2.7019 0.0000 -0.0000 4.4969 -21.7328 -5.3278 19.7544 0.0000 -0.0000 -23.2376 -11.7058 3.9104 -3.5888 -0.0000 0.0000 -4.4416 1.9610 -0.2601 -0.7121 0.8936 -2.2477 18.7025 12.4496 2.2253 -16.1337 -2.4453 -6.3570 19.6289 -4.4416 26.5878 7.2332 -6.4466 -94.6770 -0.0002 -43.8114 -0.0001 -25.0864 10.6926 -6.5521 0.0000 -0.0000 0.0000 0.0000 -0.0000 0.0000 17.4758 -2.2993 -19.8107 0.4378 -2.7272 91.8377 -0.0002 39.1451 0.0001 -41.9055 20.6743 26.3749 -0.0000 -0.0000 0.0000 -0.0000 -0.0000 0.0000
 -131.0847 32.2951 1.6240 68.9221 76.3893 -65.0782 -15.5348 21.3062 -1.7413 34.8380 0.0000 -0.0000 -30.9568 2.0231 -28.1444 -2.6584 0.0000 0.0000 3.6726 -21.4509 -5.6369 22.2689 -0.0000 -0.0000 -22.9066 -12.0147 4.3742 -5.1536 -0.0000 -0.0000 -4.4146 1.9436 -0.2506 -0.7635 0.8756 -2.1796 18.6597 12.4315 2.2529 -16.2905 -2.6922 -6.1729 19.4908 -4.6651 26.4124 6.6406 -6.5612 -95.0186 -0.0002 -44.5402 -0.0001 -25.0572 10.6003 -5.9732 0.0000 0.0000 -0.0000 0.0000 0.0000 -0.0000 17.3228 -2.0960 -19.9036 0.6459 -2.4156 92.4015 -0.0002 38.3326 0.0001 -41.0090 20.2896 26.8146 -0.0000 -0.0000 -0.0000 -0.0000 -0.0000 -0.0000
 -130.8683 32.2558 1.6026 70.2660 76.6056 -66.4493 -14.1700 20.5588 -2.1985 33.4684 -0.0000 0.0000 -31.4566 0.7721 -26.6060 -2.7156 -0.0000 -0.0000 2.6650 -21.1039 -6.1597 25.2053 -0.0000 0.0000 -22.4165 -12.2414 4.8575 -6.9227 0.0000 0.0000 -4.3352 1.9572 -0.3171 -0.7228 0.8910 -2.1119 18.5449 12.4799 2.2806 -16.4204 -2.9401 -6.0293 19.3712 -4.6859 26.2734 5.7047 -6.8976 -95.3915 -0.0002 -45.1198 -0.0001 -25.4261 10.1738 -5.5297 0.0000 0.0000 0.0000 0.0000 0.0000 0.0000 17.4436 -2.2665 -19.9549 0.2384 -1.5115 92.7837 -0.0002 37.4356 0.0001 -40.6023 19.7604 26.6631 0.0000 -0.0000 0.0000 0.0000 -0.0000 0.0000
 -130.6530 32.2115 1.5827 71.5388 76.7473 -67.8366 -12.8785 19.5028 -2.5778 31.8413 -0.0000 0.0000 -32.1849 -0.2239 -25.3856 -2.7399 0.0000 0.0000 1.4889 -20.5963 -6.6098 28.3945 -0.0000 0.0000 -21.5450 -12.4838 5.0592 -9.2398 -0.0000 0.0000 -4.2905 1.9619 -0.3143 -0.7667 0.8957 -2.0615 18.5480 12.4642 2.3570 -16.5678 -3.0699 -5.9276 19.3213 -4.8860 26.1725 4.9048 -7.1248 -95.7670 -0.0002 -45.9460 -0.0001 -25.5337 9.8744 -4.7843 0.0000 -0.0000 -0.0000 0.0000 -0.0000 -0.0000 17.5011 -2.1539 -20.0487 0.0842 -0.9180 93.2221 -0.0002 36.5554 0.0001 -39.8299 19.3073 26.7845 -0.0000 0.0000 0.0000 -0.0000 0.0000 0.0000
 -130.4504 32.1617 1.5564 72.5515 76.8278 -68.9473 -11.6463 18.1182 -3.0305 30.0841 -0.0000 0.0000 -32.9324 -0.2422 -24.9066 -2.8340 -0.0000 -0.0000 0.0092 -19.9152 -7.1519 32.0299 -0.0000 0.0000 -20.6366 -12.7363 5.5858 -11.3187 0.0000 -0.0000 -4.1690 1.9870 -0.3179 -0.8637 0.9220 -2.0313 18.4750 12.4770 2.4230 -16.6684 -3.1895 -5.7877 19.2149 -5.0427 26.0905 3.9981 -7.5347 -96.1075 -0.0002 -46.8205 -0.0001 -25.6341 9.4325 -3.9806 0.0000 -0.0000 -0.0000 0.0000 -0.0000 -0.0000 17.5000 -2.1046 -20.1540 -0.1221 -0.1528 93.6083 -0.0002 35.6771 0.0000 -38.9386 19.1352 26.8822 -0.0000 -0.0000 -0.0000 -0.0000 -0.0000 -0.0000
 -130.2495 32.1096 1.5120 73.7789 76.8899 -70.0773 -10.5199 16.4261 -3.7458 28.4612 -0.0000 0.0000 -33.2258 0.7206 -24.7785 -2.6754 0.0000 -0.0000 -1.7523 -19.1993 -7.9813 35.9610 -0.0000 -0.0000 -19.4727 -12.8685 6.4126 -13.4189 -0.0000 0.0000 -4.0363 1.9724 -0.4132 -0.9534 0.9145 -2.1020 18.3813 12.5470 2.4763 -16.7967 -3.3361 -5.6724 19.0942 -5.1516 25.9686 2.9669 -7.9335 -96.3808 -0.0002 -47.7952 -0.0001 -25.6101 9.3206 -3.5833 -0.0000 -0.0000 -0.0000 -0.0000 -0.0000 -0.0000 17.5022 -2.1690 -20.2109 -0.4909 0.8129 93.8746 -0.0001 34.7821 0.0000 -38.2971 18.8318 26.7338 -0.0000 -0.0000 -0.0000 -0.0000 -0.0000 -0.0000
